<?xml version="1.0" encoding="utf-8"?>
<!-- Generator: Adobe Illustrator 25.3.1, SVG Export Plug-In . SVG Version: 6.00 Build 0)  -->
<svg version="1.1" xmlns="http://www.w3.org/2000/svg" xmlns:xlink="http://www.w3.org/1999/xlink" x="0px" y="0px"
	 viewBox="0 0 20 20" style="enable-background:new 0 0 20 20;" xml:space="preserve">
<g id="레이어_2">
	<g>
		<g>
			<path d="M0.52,1.05C5.9,6.43,11.28,11.81,16.66,17.19c0.77,0.77,1.53,1.53,2.3,2.3c0.34,0.34,0.87-0.19,0.53-0.53
				C14.1,13.57,8.72,8.19,3.34,2.81c-0.77-0.77-1.53-1.53-2.3-2.3C0.71,0.17,0.17,0.71,0.52,1.05L0.52,1.05z"/>
		</g>
	</g>
	<g>
		<g>
			<path d="M18.95,0.52C13.57,5.9,8.19,11.28,2.81,16.66c-0.77,0.77-1.53,1.53-2.3,2.3c-0.34,0.34,0.19,0.87,0.53,0.53
				C6.43,14.1,11.81,8.72,17.19,3.34c0.77-0.77,1.53-1.53,2.3-2.3C19.83,0.71,19.29,0.17,18.95,0.52L18.95,0.52z"/>
		</g>
	</g>
</g>
<g id="레이어_4">
</g>
<g id="레이어_3">
</g>
</svg>
